# xmcd CD database file
#
# Track frame offsets:
#	150
#	25200
#	51375
#	78825
#	99375
#	123075
#	151125
#	174075
#	196125
#	221025
#	240750
#	265125
#	295650
#	322575
#
# Disc length: 4672 seconds
#
# Revision: 0
# Processed by: cddbd v1.5.2PL0 Copyright (c) Steve Scherf et al.
# Submitted via: CDex 1.51
#
DISCID=a3123e0e
DTITLE=Armin van Buuren - Universal Religion 2008
DYEAR=2008
DGENRE=New Age
TTITLE0=Another Day On the Terrace - Sunlounger
TTITLE1=Till the Sky Falls Down - Dash Berlin
TTITLE2=Invincible - Jose Amnesia
TTITLE3=Roadkill - Dubfire
TTITLE4=Welsh Morphology - David West
TTITLE5=Daydream - Markus Schulz Vs. Andy Moor
TTITLE6=Barent Blue - Terk Dawn
TTITLE7=How Long? - Aly and Fila Vs. FKN
TTITLE8=Summer Blush - Mungo
TTITLE9=Lifecycle - Forerunners
TTITLE10=Beauty Hides In the Deep - The Doppler Effect
TTITLE11=Big Sky - John O'Callaghan
TTITLE12=Resound - Thomas Bronzwaer
TTITLE13=If You Should Go - Armin Van Buuren
EXTD=YEAR: 2008
EXTT0=
EXTT1=
EXTT2=
EXTT3=
EXTT4=
EXTT5=
EXTT6=
EXTT7=
EXTT8=
EXTT9=
EXTT10=
EXTT11=
EXTT12=
EXTT13=
PLAYORDER=
